<?xml version="1.0" standalone="no"?>
<!DOCTYPE svg PUBLIC "-//W3C//DTD SVG 20010904//EN"
 "http://www.w3.org/TR/2001/REC-SVG-20010904/DTD/svg10.dtd">
<svg version="1.0" xmlns="http://www.w3.org/2000/svg"
 width="1451.000000pt" height="413.000000pt" viewBox="0 0 1451.000000 413.000000"
 preserveAspectRatio="xMidYMid meet">
<metadata>
Created by potrace 1.15, written by Peter Selinger 2001-2017
</metadata>
<g transform="translate(0.000000,413.000000) scale(0.100000,-0.100000)"
fill="#000000" stroke="none">
<path d="M1115 3583 c-65 -24 -110 -56 -146 -106 -33 -46 -59 -123 -59 -176 1
-146 125 -279 271 -289 l57 -4 176 -264 c97 -145 176 -266 176 -268 0 -2 -20
-33 -45 -70 -46 -69 -78 -154 -90 -242 l-7 -52 -129 -45 -129 -46 -57 27
c-151 70 -329 5 -395 -145 -103 -234 120 -478 363 -398 76 26 160 111 184 187
l18 56 105 36 c58 20 106 35 106 34 1 -2 19 -29 40 -61 44 -65 118 -136 183
-174 24 -13 43 -28 43 -31 0 -13 -80 -667 -85 -698 -4 -24 -17 -38 -55 -62
-109 -68 -164 -209 -127 -327 52 -166 218 -253 378 -200 74 25 159 110 184
184 32 97 2 236 -64 295 -12 11 -21 31 -21 45 0 14 19 179 41 367 l42 341 71
12 c65 11 165 53 251 105 l31 19 147 -98 c144 -96 147 -99 147 -134 1 -149
125 -280 276 -289 93 -6 156 18 225 87 69 70 94 133 87 225 -15 181 -179 304
-357 266 l-58 -12 -151 100 -150 101 15 43 c8 24 17 88 20 143 l6 100 356 163
c196 89 361 162 367 162 6 0 26 -8 45 -17 50 -25 146 -29 210 -8 39 13 69 34
110 74 69 70 94 133 87 225 -18 224 -262 346 -451 226 -59 -37 -97 -89 -123
-168 l-21 -66 -344 -158 c-189 -87 -346 -157 -349 -155 -3 1 -30 28 -59 60
l-55 58 44 89 c39 79 47 90 70 90 95 0 221 99 255 199 63 192 -77 385 -280
385 -199 0 -333 -180 -280 -376 l17 -63 -50 -106 -49 -105 -65 4 c-39 2 -100
-3 -148 -12 -46 -10 -86 -14 -90 -9 -4 4 -85 124 -180 267 l-172 259 12 44
c27 94 -9 220 -82 290 -73 71 -200 99 -293 66z"/>
<path d="M12590 2560 c-19 -19 -20 -33 -20 -480 l0 -461 25 -24 c29 -30 64
-32 96 -6 22 17 24 28 27 118 3 89 6 100 30 126 14 15 31 27 36 27 6 0 74 -66
152 -146 133 -139 142 -147 170 -140 43 11 64 35 64 73 0 29 -15 50 -102 145
-125 135 -157 171 -158 179 0 3 54 54 120 113 107 96 120 110 120 140 0 41
-29 69 -71 68 -24 -1 -52 -21 -136 -99 -58 -54 -132 -122 -164 -151 l-59 -54
0 270 c0 257 -1 270 -21 296 -26 33 -79 36 -109 6z"/>
<path d="M5015 2529 c-188 -25 -337 -151 -389 -328 -23 -78 -21 -242 3 -320
85 -275 416 -403 691 -268 43 21 45 24 45 66 0 36 -5 47 -27 64 l-26 20 -76
-28 c-151 -55 -280 -33 -376 64 -73 74 -95 134 -94 256 0 75 4 99 26 146 74
161 240 226 421 165 92 -31 118 -32 140 -8 22 25 22 85 0 104 -42 35 -209 83
-268 77 -5 -1 -37 -5 -70 -10z"/>
<path d="M9690 2517 c-32 -16 -40 -79 -14 -108 15 -17 32 -19 151 -19 l133 0
0 -389 0 -390 27 -21 c21 -16 37 -20 61 -16 65 10 62 -10 62 422 l0 394 135 0
c122 0 137 2 155 20 27 27 25 66 -5 95 l-24 25 -328 0 c-243 0 -334 -4 -353
-13z"/>
<path d="M5729 2296 c-104 -28 -202 -114 -237 -210 -74 -199 1 -407 178 -494
49 -24 67 -27 155 -27 87 0 107 3 156 26 125 59 199 168 207 307 6 106 -11
179 -59 251 -86 128 -248 188 -400 147z m190 -145 c48 -25 95 -78 112 -128 54
-158 -49 -328 -200 -327 -136 1 -230 112 -219 257 3 35 13 77 21 94 22 41 74
93 112 109 45 20 129 17 174 -5z"/>
<path d="M6630 2301 c-43 -14 -87 -39 -118 -70 l-30 -30 -7 27 c-3 15 -14 35
-22 45 -22 23 -78 22 -103 -3 -19 -19 -20 -33 -20 -335 l0 -316 25 -24 c29
-30 64 -32 96 -6 24 19 24 23 29 238 6 244 12 271 78 321 36 27 74 32 142 18
48 -10 81 15 82 63 2 64 -68 97 -152 72z"/>
<path d="M7079 2292 c-119 -40 -216 -145 -239 -259 -52 -250 93 -457 331 -471
169 -10 306 79 365 238 25 68 23 209 -5 282 -30 78 -97 150 -176 189 -83 40
-192 49 -276 21z m229 -155 c126 -83 136 -292 19 -392 -86 -74 -196 -69 -279
14 -116 117 -91 314 51 391 54 30 154 24 209 -13z"/>
<path d="M7979 2295 c-25 -8 -67 -33 -92 -56 -47 -40 -47 -40 -47 -15 0 36
-33 66 -73 66 -67 0 -67 1 -67 -363 0 -325 0 -326 22 -341 31 -22 60 -20 92 5
l26 20 0 212 c0 193 2 214 21 254 39 81 159 120 239 78 59 -31 65 -56 68 -312
l3 -233 26 -20 c31 -24 61 -26 91 -4 22 15 22 18 22 268 0 279 -7 327 -58 382
-16 18 -43 39 -61 49 -45 23 -155 28 -212 10z"/>
<path d="M8705 2301 c-143 -37 -241 -165 -252 -329 -10 -136 27 -243 109 -324
110 -107 282 -118 401 -26 28 22 37 25 37 13 0 -25 46 -65 75 -65 14 0 37 11
50 25 l25 24 0 311 c0 360 -2 369 -77 370 -36 0 -60 -20 -69 -56 -6 -25 -7
-25 -28 -6 -59 54 -190 85 -271 63z m198 -161 c109 -69 137 -247 56 -360 -77
-106 -204 -117 -295 -26 -43 43 -74 118 -74 181 0 48 25 122 55 160 60 80 173
99 258 45z"/>
<path d="M10758 2301 c-42 -14 -94 -49 -123 -82 l-25 -31 0 31 c0 41 -31 71
-73 71 -67 0 -67 1 -67 -363 0 -325 0 -326 22 -341 30 -22 60 -20 91 4 l26 20
3 213 c3 196 5 215 25 253 25 47 73 91 109 100 14 4 44 1 68 -6 45 -12 80 -4
98 24 15 22 8 73 -12 91 -23 20 -101 29 -142 16z"/>
<path d="M11202 2291 c-98 -34 -177 -120 -208 -229 -25 -84 -16 -230 18 -303
55 -120 151 -189 273 -197 84 -5 125 6 195 53 43 29 50 31 50 15 0 -23 45 -60
74 -60 12 0 32 7 44 16 22 15 22 15 22 348 0 373 1 366 -73 366 -38 0 -67 -27
-67 -62 0 -15 -6 -14 -42 12 -81 59 -189 75 -286 41z m195 -132 c40 -15 92
-67 114 -114 29 -62 26 -167 -7 -233 -53 -107 -165 -147 -266 -96 -160 82
-156 354 7 438 35 18 111 21 152 5z"/>
<path d="M12084 2301 c-141 -36 -246 -158 -264 -303 -22 -186 54 -345 198
-411 39 -18 65 -22 157 -22 93 0 118 4 160 23 69 32 95 59 95 98 0 67 -61 84
-131 37 -57 -38 -154 -39 -219 -3 -150 84 -159 313 -16 415 51 37 155 48 205
21 17 -9 45 -23 61 -32 40 -21 74 -11 89 24 24 57 -15 112 -99 141 -44 15
-195 23 -236 12z"/>
<path d="M13500 2297 c-94 -27 -172 -96 -219 -196 -23 -50 -26 -68 -26 -171 0
-103 3 -121 26 -171 34 -72 96 -134 168 -167 49 -24 69 -27 161 -27 99 0 109
2 172 33 102 50 134 106 88 152 -29 29 -54 25 -122 -17 -53 -33 -67 -37 -126
-37 -77 0 -133 23 -177 75 -26 32 -34 47 -49 97 l-7 22 246 0 246 0 26 26 c23
23 25 30 19 76 -17 126 -80 221 -185 277 -72 38 -167 49 -241 28z m163 -140
c40 -17 107 -90 107 -117 0 -19 -7 -20 -185 -20 -123 0 -185 4 -185 10 0 38
65 111 115 128 43 15 110 14 148 -1z"/>
<path d="M14350 2298 c-41 -12 -87 -42 -116 -75 l-21 -25 -7 29 c-4 15 -15 36
-23 46 -22 23 -78 22 -103 -3 -19 -19 -20 -33 -20 -339 l0 -320 26 -20 c33
-26 65 -27 95 -2 24 19 24 23 29 238 6 242 12 271 74 317 45 34 71 39 126 25
42 -11 52 -10 74 5 21 13 26 25 26 56 0 69 -63 96 -160 68z"/>
</g>
</svg>
