<?xml version="1.0" standalone="no"?>
<!DOCTYPE svg PUBLIC "-//W3C//DTD SVG 20010904//EN"
 "http://www.w3.org/TR/2001/REC-SVG-20010904/DTD/svg10.dtd">
<svg version="1.0" xmlns="http://www.w3.org/2000/svg"
 width="414.000000pt" height="413.000000pt" viewBox="0 0 414.000000 413.000000"
 preserveAspectRatio="xMidYMid meet">
<metadata>
Created by potrace 1.15, written by Peter Selinger 2001-2017
</metadata>
<g transform="translate(0.000000,413.000000) scale(0.100000,-0.100000)"
fill="#000000" stroke="none">
<path d="M1115 3583 c-65 -24 -110 -56 -146 -106 -33 -46 -59 -123 -59 -176 1
-146 125 -279 271 -289 l57 -4 176 -264 c97 -145 176 -266 176 -268 0 -2 -20
-33 -45 -70 -46 -69 -78 -154 -90 -242 l-7 -52 -129 -45 -129 -46 -57 27
c-151 70 -329 5 -395 -145 -103 -234 120 -478 363 -398 76 26 160 111 184 187
l18 56 105 36 c58 20 106 35 106 34 1 -2 19 -29 40 -61 44 -65 118 -136 183
-174 24 -13 43 -28 43 -31 0 -13 -80 -667 -85 -698 -4 -24 -17 -38 -55 -62
-109 -68 -164 -209 -127 -327 52 -166 218 -253 378 -200 74 25 159 110 184
184 32 97 2 236 -64 295 -12 11 -21 31 -21 45 0 14 19 179 41 367 l42 341 71
12 c65 11 165 53 251 105 l31 19 147 -98 c144 -96 147 -99 147 -134 1 -149
125 -280 276 -289 93 -6 156 18 225 87 69 70 94 133 87 225 -15 181 -179 304
-357 266 l-58 -12 -151 100 -150 101 15 43 c8 24 17 88 20 143 l6 100 356 163
c196 89 361 162 367 162 6 0 26 -8 45 -17 50 -25 146 -29 210 -8 39 13 69 34
110 74 69 70 94 133 87 225 -18 224 -262 346 -451 226 -59 -37 -97 -89 -123
-168 l-21 -66 -344 -158 c-189 -87 -346 -157 -349 -155 -3 1 -30 28 -59 60
l-55 58 44 89 c39 79 47 90 70 90 95 0 221 99 255 199 63 192 -77 385 -280
385 -199 0 -333 -180 -280 -376 l17 -63 -50 -106 -49 -105 -65 4 c-39 2 -100
-3 -148 -12 -46 -10 -86 -14 -90 -9 -4 4 -85 124 -180 267 l-172 259 12 44
c27 94 -9 220 -82 290 -73 71 -200 99 -293 66z"/>
</g>
</svg>
